<svg data-v-6fdb625a="" data-v-a6c8532e="" xmlns="http://www.w3.org/2000/svg" fill="none" viewBox="0 0 16 16" class="svg-icon icon ico-reset ico-reset"><path fill="#222" stroke="#000" stroke-width=".2" d="M8 1.297a7.246 7.246 0 0 1 3.153.715 7.049 7.049 0 0 1 2.318 1.786V1.33a.406.406 0 0 1 .118-.303.422.422 0 0 1 .304-.127.43.43 0 0 1 .165.033l-.039.092.039-.092a.422.422 0 0 1 .23.234l-.094.036.093-.036c.02.052.03.107.027.163v3.814c0 .23-.191.412-.42.412H9.958a.426.426 0 0 1-.284-.126.408.408 0 0 1 0-.572.426.426 0 0 1 .284-.126h3.181a6.176 6.176 0 0 0-.714-.83A6.337 6.337 0 0 0 8.614 2.15a6.401 6.401 0 0 0-4.092.995 6.095 6.095 0 0 0-2.51 3.29 5.914 5.914 0 0 0 .206 4.087 6.145 6.145 0 0 0 2.83 3.035 6.42 6.42 0 0 0 4.173.601 6.294 6.294 0 0 0 3.617-2.106 5.97 5.97 0 0 0 1.42-3.854v-.005a.409.409 0 0 1 .13-.28.427.427 0 0 1 .58 0 .409.409 0 0 1 .132.28v.005c0 3.814-3.182 6.902-7.1 6.902-3.918 0-7.1-3.088-7.1-6.902C.9 4.383 4.082 1.297 8 1.297Zm0 0v.1-.1Z"></path></svg>